<svg width="192" height="192" viewBox="0 0 192 192" fill="none" xmlns="http://www.w3.org/2000/svg">
<rect width="192" height="192" rx="32" fill="url(#gradient0_linear_1_1)"/>
<path d="M96 64C134.39999999999998 64 153.60000000000002 76.80000000000001 153.60000000000002 96C153.60000000000002 115.19999999999999 134.39999999999998 134.39999999999998 96 134.39999999999998C57.599999999999994 134.39999999999998 38.400000000000006 115.19999999999999 38.400000000000006 96C38.400000000000006 76.80000000000001 57.599999999999994 64 96 64Z" fill="white"/>
<path d="M96 67.19999999999999C115.19999999999999 67.19999999999999 124.80000000000001 76.80000000000001 124.80000000000001 96C124.80000000000001 115.19999999999999 115.19999999999999 124.80000000000001 96 124.80000000000001C76.80000000000001 124.80000000000001 67.19999999999999 115.19999999999999 67.19999999999999 96C67.19999999999999 76.80000000000001 76.80000000000001 67.19999999999999 96 67.19999999999999Z" fill="#8B5CF6"/>
<defs>
<linearGradient id="gradient0_linear_1_1" x1="0" y1="0" x2="192" y2="192" gradientUnits="userSpaceOnUse">
<stop stop-color="#8B5CF6"/>
<stop offset="1" stop-color="#7C4BD6"/>
</linearGradient>
</defs>
</svg>