<svg width="72" height="72" viewBox="0 0 72 72" fill="none" xmlns="http://www.w3.org/2000/svg">
<rect width="72" height="72" rx="12" fill="url(#gradient0_linear_1_1)"/>
<path d="M36 24C50.4 24 57.6 28.8 57.6 36C57.6 43.199999999999996 50.4 50.4 36 50.4C21.599999999999998 50.4 14.4 43.199999999999996 14.4 36C14.4 28.8 21.599999999999998 24 36 24Z" fill="white"/>
<path d="M36 25.2C43.199999999999996 25.2 46.800000000000004 28.8 46.800000000000004 36C46.800000000000004 43.199999999999996 43.199999999999996 46.800000000000004 36 46.800000000000004C28.8 46.800000000000004 25.2 43.199999999999996 25.2 36C25.2 28.8 28.8 25.2 36 25.2Z" fill="#8B5CF6"/>
<defs>
<linearGradient id="gradient0_linear_1_1" x1="0" y1="0" x2="72" y2="72" gradientUnits="userSpaceOnUse">
<stop stop-color="#8B5CF6"/>
<stop offset="1" stop-color="#7C4BD6"/>
</linearGradient>
</defs>
</svg>