<svg width="144" height="144" viewBox="0 0 144 144" fill="none" xmlns="http://www.w3.org/2000/svg">
<rect width="144" height="144" rx="24" fill="url(#gradient0_linear_1_1)"/>
<path d="M72 48C100.8 48 115.2 57.6 115.2 72C115.2 86.39999999999999 100.8 100.8 72 100.8C43.199999999999996 100.8 28.8 86.39999999999999 28.8 72C28.8 57.6 43.199999999999996 48 72 48Z" fill="white"/>
<path d="M72 50.4C86.39999999999999 50.4 93.60000000000001 57.6 93.60000000000001 72C93.60000000000001 86.39999999999999 86.39999999999999 93.60000000000001 72 93.60000000000001C57.6 93.60000000000001 50.4 86.39999999999999 50.4 72C50.4 57.6 57.6 50.4 72 50.4Z" fill="#8B5CF6"/>
<defs>
<linearGradient id="gradient0_linear_1_1" x1="0" y1="0" x2="144" y2="144" gradientUnits="userSpaceOnUse">
<stop stop-color="#8B5CF6"/>
<stop offset="1" stop-color="#7C4BD6"/>
</linearGradient>
</defs>
</svg>