<svg width="96" height="96" viewBox="0 0 96 96" fill="none" xmlns="http://www.w3.org/2000/svg">
<rect width="96" height="96" rx="16" fill="url(#gradient0_linear_1_1)"/>
<path d="M48 32C67.19999999999999 32 76.80000000000001 38.400000000000006 76.80000000000001 48C76.80000000000001 57.599999999999994 67.19999999999999 67.19999999999999 48 67.19999999999999C28.799999999999997 67.19999999999999 19.200000000000003 57.599999999999994 19.200000000000003 48C19.200000000000003 38.400000000000006 28.799999999999997 32 48 32Z" fill="white"/>
<path d="M48 33.599999999999994C57.599999999999994 33.599999999999994 62.400000000000006 38.400000000000006 62.400000000000006 48C62.400000000000006 57.599999999999994 57.599999999999994 62.400000000000006 48 62.400000000000006C38.400000000000006 62.400000000000006 33.599999999999994 57.599999999999994 33.599999999999994 48C33.599999999999994 38.400000000000006 38.400000000000006 33.599999999999994 48 33.599999999999994Z" fill="#8B5CF6"/>
<defs>
<linearGradient id="gradient0_linear_1_1" x1="0" y1="0" x2="96" y2="96" gradientUnits="userSpaceOnUse">
<stop stop-color="#8B5CF6"/>
<stop offset="1" stop-color="#7C4BD6"/>
</linearGradient>
</defs>
</svg>