<svg width="384" height="384" viewBox="0 0 384 384" fill="none" xmlns="http://www.w3.org/2000/svg">
<rect width="384" height="384" rx="64" fill="url(#gradient0_linear_1_1)"/>
<path d="M192 128C268.79999999999995 128 307.20000000000005 153.60000000000002 307.20000000000005 192C307.20000000000005 230.39999999999998 268.79999999999995 268.79999999999995 192 268.79999999999995C115.19999999999999 268.79999999999995 76.80000000000001 230.39999999999998 76.80000000000001 192C76.80000000000001 153.60000000000002 115.19999999999999 128 192 128Z" fill="white"/>
<path d="M192 134.39999999999998C230.39999999999998 134.39999999999998 249.60000000000002 153.60000000000002 249.60000000000002 192C249.60000000000002 230.39999999999998 230.39999999999998 249.60000000000002 192 249.60000000000002C153.60000000000002 249.60000000000002 134.39999999999998 230.39999999999998 134.39999999999998 192C134.39999999999998 153.60000000000002 153.60000000000002 134.39999999999998 192 134.39999999999998Z" fill="#8B5CF6"/>
<defs>
<linearGradient id="gradient0_linear_1_1" x1="0" y1="0" x2="384" y2="384" gradientUnits="userSpaceOnUse">
<stop stop-color="#8B5CF6"/>
<stop offset="1" stop-color="#7C4BD6"/>
</linearGradient>
</defs>
</svg>